<?xml version="1.0" encoding="utf-8"?>
<!-- Generator: Adobe Illustrator 28.1.0, SVG Export Plug-In . SVG Version: 6.00 Build 0)  -->
<svg version="1.1" id="b" xmlns="http://www.w3.org/2000/svg" xmlns:xlink="http://www.w3.org/1999/xlink" x="0px" y="0px"
	 viewBox="0 0 2371.2 707.4" style="enable-background:new 0 0 2371.2 707.4;" xml:space="preserve">
<style type="text/css">
	.st0{fill:#363C47;}
	.st1{fill:#F6913C;}
	.st2{fill-rule:evenodd;clip-rule:evenodd;fill:#363C47;}
	.st3{fill-rule:evenodd;clip-rule:evenodd;fill:#F6913C;}
	.st4{fill:#353C47;}
</style>
<g>
	<g>
		<g>
			<path class="st0" d="M846,158.9c-12.1-12.1-26.3-21.7-42.5-28.7c-16.2-7-33.5-10.5-51.7-10.5l-98-0.2c-12,0-22.2,4.2-30.6,12.6
				c-8.5,8.4-12.7,18.6-12.7,30.6l-0.5,286.1c0,12.3,4.2,22.6,12.6,31.1c8.4,8.5,18.6,12.7,30.6,12.7c12.3,0,22.7-4.2,31.1-12.6
				c8.5-8.4,12.7-18.8,12.7-31.1l0.1-62.2l54.2,0.1c18.2,0,35.5-3.4,51.8-10.4c16.3-7,30.5-16.5,42.6-28.5
				c12.1-12.1,21.7-26.2,28.7-42.2c7-16.1,10.5-33.4,10.5-52c0-18.6-3.4-36-10.4-52.3C867.6,185.2,858.1,171,846,158.9L846,158.9z
				 M793.5,274c-2.8,6.3-6.6,11.9-11.2,16.6c-4.7,4.8-10.2,8.6-16.7,11.4c-6.5,2.8-13.4,4.2-20.7,4.2l-47.8-0.1l0.2-106l47.8,0.1
				c7.3,0,14.2,1.4,20.7,4.3c6.5,2.8,12,6.7,16.7,11.5c4.6,4.8,8.4,10.5,11.2,16.9c2.8,6.5,4.2,13.4,4.2,20.6
				C797.8,260.9,796.4,267.7,793.5,274L793.5,274z M952.8,117c-11.6,0-21.4,3.9-29.4,11.9s-12,17.7-12,29.3s4,21.5,11.9,29.6
				c8,8.1,17.7,12.2,29.3,12.2c11.6,0,21.5-4,29.6-12.1c8.1-8.1,12.2-18,12.2-29.6c0-11.6-4-21.4-12.2-29.4
				C974.3,121,964.4,117,952.8,117L952.8,117z M980.3,225.8c-3.5-3.5-7.6-6.2-12.4-8.2c-4.8-2-9.9-3-15.2-3
				c-10.6,0-19.7,3.7-27.1,11.1c-7.5,7.5-11.2,16.5-11.2,27.1l-0.3,201.5c0,5.3,1,10.4,3,15.2c2,4.8,4.7,9,8.2,12.5
				c3.5,3.5,7.5,6.2,12.2,8.2c4.6,2,9.6,3,14.9,3c10.6,0,19.7-3.8,27.4-11.4c7.6-7.6,11.5-16.7,11.5-27.4l0.3-201.5
				c0-5.3-1-10.3-3-14.9C986.5,233.3,983.7,229.3,980.3,225.8L980.3,225.8z M1199.8,350.3l61.3-71.6c6.3-8,9.5-16.2,9.5-24.9
				c0-7-1.3-12.9-4-17.9c-2.7-5-6-9-9.9-12c-4-3-8.2-5.2-12.7-6.7c-4.5-1.5-8.5-2.3-12.2-2.3c-5.6,0-11,1.1-16.2,3.4
				c-5.2,2.3-9.6,5.8-13.2,10.4l-53.4,62.1l-53.2-62.3c-8.3-9.3-18.1-14-29.3-14c-3.7,0-7.7,0.7-12.2,2.2c-4.5,1.5-8.7,3.7-12.7,6.7
				c-4,3-7.3,7-10,11.9c-2.7,5-4,10.9-4,17.9c0,8.6,3.1,16.9,9.4,24.9l61.1,71.8l-68.8,80c-6,7-9,15.2-9,24.9
				c0,4.6,0.9,9.2,2.7,13.7c1.8,4.5,4.4,8.5,7.7,12.2c3.3,3.7,7.4,6.6,12.2,9c4.8,2.3,10.2,3.5,16.2,3.5c5.6,0,11-1,16.2-3.2
				c5.1-2.1,9.5-5.5,13.2-10.2l60.3-70.1l60.1,70.3c3.6,4.6,8,8,13.2,10.2c5.1,2.2,10.5,3.2,16.2,3.3c5.6,0,10.8-1.1,15.4-3.5
				c4.7-2.3,8.7-5.3,12.2-8.9c3.5-3.6,6.2-7.7,8.2-12.2c2-4.5,3-9,3-13.7c0-8.6-3.1-16.9-9.4-24.9L1199.8,350.3L1199.8,350.3z
				 M1512.8,239.3c-11.1-8.6-23.9-15.3-38.3-20c-14.4-4.7-29.1-7-44-7c-19.6,0-38,3.4-55.3,10.4c-17.3,6.9-32.4,16.7-45.3,29.3
				c-13,12.6-23.2,27.6-30.7,45c-7.5,17.4-11.2,36.5-11.3,57.5c0,20.9,3.7,40.1,11.1,57.5c7.4,17.4,17.6,32.5,30.5,45.1
				c12.9,12.6,28,22.4,45.2,29.4c17.2,7,35.6,10.5,55.2,10.5c19.9,0,38.2-3.3,54.8-10.1c16.6-6.8,30.2-15.1,40.8-25.1
				c7.6-7.6,11.5-16.2,11.5-25.9c0-5.3-1.1-10.4-3.2-15.2c-2.2-4.8-5-9-8.7-12.7c-3.7-3.6-7.9-6.6-12.7-9c-4.8-2.3-9.7-3.5-14.7-3.5
				c-6.6,0-11.9,1.4-15.7,4.2c-3.8,2.8-7.8,5.9-12,9.2c-4.2,3.3-9.2,6.4-15.2,9.2c-6,2.8-14.3,4.2-24.9,4.2c-3.7,0-7.8-0.5-12.4-1.5
				c-4.7-1-8.9-2.2-12.9-3.8c-4-1.5-7.3-3.2-9.9-5c-2.7-1.8-4-3.7-4-5.7c0-2.3,2.3-4.5,7-6.5l130-54c7.6-3,13.2-7.5,16.7-13.7
				c3.5-6.1,5.2-13.3,5.3-21.6c0-14.9-3.4-28.4-10.1-40.3S1523.8,248,1512.8,239.3L1512.8,239.3z M1458.6,308.4l-80.7,33.7
				c-2,0.7-3.7,1-5,1c-1.7,0-3.1-0.4-4.2-1.2s-1.7-2.2-1.7-4.2c0-5,1.6-10.5,4.8-16.4c3.2-6,7.6-11.4,13.2-16.4
				c5.6-5,12.3-9.2,19.9-12.7c7.6-3.5,16.1-5.2,25.4-5.2c9.6,0,17.9,1.5,24.9,4.5c7,3,10.4,6.3,10.4,10
				C1465.6,304.1,1463.3,306.4,1458.6,308.4L1458.6,308.4z M1657,144.5c-2-4.6-4.7-8.7-8.2-12.2c-3.5-3.5-7.6-6.2-12.4-8.2
				c-4.8-2-9.9-3-15.2-3c-10.6,0-19.7,3.7-27.1,11.2c-7.5,7.5-11.2,16.5-11.2,27.1l-0.5,296.1c0,5.3,1,10.4,3,15.2
				c2,4.8,4.7,9,8.2,12.5c3.5,3.5,7.5,6.2,12.2,8.2c4.6,2,9.6,3,14.9,3c10.6,0,19.8-3.8,27.4-11.4c7.6-7.6,11.5-16.7,11.5-27.4
				l0.5-296.1C1660,154.2,1659,149.2,1657,144.5L1657,144.5z"/>
			<g>
				<path class="st1" d="M1792.6,277l-0.3,174.2c0,12.3-4.3,22.6-12.8,31.1c-8.5,8.4-18.8,12.7-31.1,12.6
					c-11.9,0-22.1-4.2-30.6-12.7c-8.4-8.5-12.7-18.9-12.6-31.1l0.5-286.1c0-11.9,4.3-22.1,12.7-30.6c8.5-8.4,18.7-12.7,30.6-12.6
					c7.3,0,13.8,1.6,19.7,4.8c5.8,3.2,10.5,6.9,14.2,11.2L1939.4,339l0.3-173.6c0-11.9,4.3-22.1,12.7-30.6
					c8.5-8.4,18.7-12.7,30.6-12.7c12.3,0,22.6,4.3,31.1,12.7c8.4,8.5,12.7,18.7,12.6,30.6l-0.5,286.1c0,12.3-4.3,22.6-12.7,31.1
					c-8.5,8.4-18.9,12.6-31.1,12.6c-7.6,0-14.3-1.8-20.2-5.3c-5.8-3.5-10.5-7.6-14.2-12.2L1792.6,277L1792.6,277z"/>
				<path class="st1" d="M2076.5,191.9c-5.6-7.6-8.4-16.3-8.4-25.9c0-7.6,1.4-14.2,4.3-19.6c2.8-5.5,6.5-10,11-13.7
					c4.5-3.6,9.2-6.3,14.2-7.9c5-1.6,9.8-2.5,14.4-2.5c6.6,0,12.9,1.5,18.9,4.5c6,3,11.1,7.3,15.4,13l69.5,91.7l69.3-91.4
					c4.3-5.6,9.6-9.9,15.7-12.9c6.1-3,12.5-4.5,19.2-4.4c4,0,8.4,0.8,13.4,2.3c5,1.5,9.7,3.9,14.2,7.2c4.5,3.3,8.2,7.8,11.2,13.4
					c3,5.6,4.5,12.6,4.4,20.9c0,4.6-0.7,9.2-2,13.7c-1.3,4.5-3.5,8.5-6.5,12.2l-84.8,111.3l92.9,122.6c3,3.7,5.1,7.7,6.4,12.2
					c1.3,4.5,2,9,2,13.7c0,7.3-1.4,13.7-4,19.1c-2.7,5.5-6.1,10-10.2,13.7c-4.2,3.6-8.8,6.4-13.9,8.2c-5.1,1.8-10.2,2.7-15.2,2.7
					c-6.6,0-13-1.4-19.2-4.3c-6.1-2.8-11.4-7.1-15.7-12.7l-77.5-103.1l-78.3,102.9c-4.3,5.6-9.6,9.9-15.7,12.7
					c-6.1,2.8-12.5,4.2-19.2,4.2c-7.3,0-13.7-1.4-19.2-4.3c-5.5-2.8-9.9-6.3-13.4-10.5c-3.5-4.1-6.1-8.8-7.9-13.9
					c-1.8-5.1-2.7-10.2-2.7-15.2c0-9.6,2.8-18.2,8.5-25.9l93.3-122.2L2076.5,191.9L2076.5,191.9z"/>
			</g>
		</g>
		<path class="st2" d="M311.3,143.4L136.7,96.6c-12.7-3.4-25.7,4.1-29.1,16.8L60.8,288c-3.4,12.7,4.1,25.7,16.8,29.1l174.5,46.8
			c12.7,3.4,25.7-4.1,29.1-16.8l46.8-174.6C331.5,159.8,324,146.8,311.3,143.4L311.3,143.4z"/>
		<path class="st3" d="M7.2,123.1L40.2,104c6.8-4,15.6-1.6,19.6,5.2l19.1,33.1c3.9,6.9,1.6,15.6-5.2,19.6L40.6,181
			c-6.8,4-15.6,1.6-19.6-5.2L1.9,142.6C-2,135.8,0.3,127,7.2,123.1z"/>
		<path class="st3" d="M99.5,40.1l19-32.9c3.9-6.8,12.7-9.2,19.5-5.2l32.9,19c6.8,3.9,9.2,12.7,5.2,19.5l-19,32.9
			c-3.9,6.8-12.7,9.2-19.5,5.2l-33-19C97.9,55.6,95.6,46.9,99.5,40.1L99.5,40.1z"/>
		<path class="st2" d="M13.7,27.9l24.7-14.3c4.5-2.6,10.4-1.1,13,3.5l14.3,24.7c2.6,4.5,1.1,10.4-3.5,13L37.5,69.1
			c-4.5,2.6-10.4,1.1-13-3.5L10.3,40.9C7.6,36.3,9.2,30.5,13.7,27.9L13.7,27.9z"/>
		<path class="st3" d="M311.3,143.4c12.7,3.4,20.2,16.4,16.8,29.1l-1,3.8l118,31.6c12.7,3.4,20.2,16.4,16.8,29.1l-61.5,229.7
			c-3.4,12.7-16.4,20.2-29.1,16.8L141.6,422c-12.7-3.4-20.2-16.4-16.8-29.1l15.9-58.9l-31.4-8.4v129.6c0,23.1,18.5,41.8,41.3,41.8
			h298c22.8,0,41.3-18.7,41.3-41.8V158.3c0-23.1-18.5-41.8-41.3-41.8H211L311.3,143.4L311.3,143.4z"/>
		<g>
			<path class="st0" d="M163.5,612.7c2.2-2.2,4.8-3.3,7.9-3.3s5.8,1.1,8,3.3c2.2,2.2,3.3,4.8,3.3,7.9v73.8c0,3.2-1.1,5.8-3.3,8
				c-2.2,2.2-4.9,3.3-8,3.3s-5.7-1.1-7.9-3.3c-2.2-2.2-3.3-4.9-3.3-8v-73.8C160.3,617.5,161.3,614.9,163.5,612.7L163.5,612.7z"/>
			<path class="st0" d="M250.4,649.5v44.9c0,3.2-1.1,5.8-3.3,8c-2.2,2.2-4.9,3.3-8,3.3s-5.7-1.1-7.9-3.3c-2.2-2.2-3.3-4.9-3.3-8
				v-73.8c0-3.1,1.1-5.7,3.3-7.9c2.2-2.2,4.8-3.3,7.9-3.3c1.9,0,3.6,0.4,5.1,1.2s2.7,1.8,3.7,2.9l40.4,51.9v-44.8
				c0-3.1,1.1-5.7,3.3-7.9c2.2-2.2,4.8-3.3,7.9-3.3s5.8,1.1,8,3.3c2.2,2.2,3.3,4.8,3.3,7.9v73.8c0,3.2-1.1,5.8-3.3,8
				c-2.2,2.2-4.9,3.3-8,3.3c-2,0-3.7-0.5-5.2-1.3c-1.5-0.9-2.7-2-3.7-3.2L250.4,649.5L250.4,649.5z"/>
			<path class="st0" d="M378.4,649.5v44.9c0,3.2-1.1,5.8-3.3,8c-2.2,2.2-4.9,3.3-8,3.3s-5.7-1.1-7.9-3.3c-2.2-2.2-3.3-4.9-3.3-8
				v-73.8c0-3.1,1.1-5.7,3.3-7.9c2.2-2.2,4.8-3.3,7.9-3.3c1.9,0,3.6,0.4,5.1,1.2s2.7,1.8,3.7,2.9l40.5,51.9v-44.8
				c0-3.1,1.1-5.7,3.3-7.9c2.2-2.2,4.8-3.3,7.9-3.3s5.8,1.1,8,3.3c2.2,2.2,3.3,4.8,3.3,7.9v73.8c0,3.2-1.1,5.8-3.3,8
				c-2.2,2.2-4.9,3.3-8,3.3c-2,0-3.7-0.5-5.2-1.3c-1.5-0.9-2.7-2-3.7-3.2L378.4,649.5L378.4,649.5z"/>
			<path class="st0" d="M511,703.5c-6-2.6-11.3-6.2-15.8-10.7c-4.5-4.5-8-9.8-10.7-15.9c-2.6-6.1-3.9-12.5-3.9-19.4
				s1.3-13.3,3.9-19.4c2.6-6.1,6.2-11.4,10.7-15.9c4.5-4.5,9.8-8,15.8-10.7c6-2.6,12.5-3.9,19.3-3.9s13.3,1.3,19.4,3.9
				s11.4,6.2,15.9,10.7c4.5,4.5,8,9.8,10.7,15.9c2.6,6.1,3.9,12.5,3.9,19.4s-1.3,13.3-3.9,19.4s-6.2,11.4-10.7,15.9
				c-4.5,4.5-9.8,8-15.9,10.7c-6.1,2.6-12.5,3.9-19.4,3.9S517,706.1,511,703.5L511,703.5z M505.2,668.2c1.4,3.3,3.4,6.2,5.8,8.7
				c2.5,2.5,5.4,4.4,8.7,5.8c3.3,1.4,6.8,2.1,10.6,2.1s7.3-0.7,10.7-2.1c3.3-1.4,6.2-3.4,8.7-5.8c2.5-2.5,4.4-5.4,5.8-8.7
				c1.4-3.3,2.1-6.8,2.1-10.6s-0.7-7.3-2.1-10.6c-1.4-3.3-3.4-6.2-5.8-8.7c-2.5-2.5-5.4-4.5-8.7-5.9c-3.3-1.5-6.9-2.2-10.7-2.2
				s-7.3,0.7-10.6,2.2c-3.3,1.5-6.2,3.4-8.7,5.9s-4.4,5.4-5.8,8.7s-2.1,6.8-2.1,10.6S503.8,664.9,505.2,668.2L505.2,668.2z"/>
			<path class="st0" d="M663.6,703.9c-1.7,1.2-3.8,1.9-6.3,1.9s-4.6-0.6-6.3-1.9c-1.7-1.2-3-3-4-5.2l-32.5-73.5
				c-0.6-1.5-0.9-3-0.9-4.5c0-1.3,0.2-2.6,0.6-3.9c0.4-1.3,1.1-2.5,2-3.6c0.9-1.1,2.1-2,3.5-2.7c1.4-0.7,3-1.1,5-1.1
				c2.2,0,4.3,0.6,6.1,1.7c1.8,1.2,3.2,2.8,4,4.9l22.3,55.6l22.2-55.6c0.9-2.1,2.2-3.8,4.1-4.9c1.9-1.2,3.9-1.7,6.2-1.7
				c1.4,0,2.7,0.2,4,0.7c1.3,0.5,2.5,1.2,3.6,2.1c1.1,0.9,1.9,2.1,2.6,3.5c0.6,1.4,1,3.1,1,4.9c0,1.5-0.3,3-0.9,4.5l-32.5,73.5
				C666.7,700.9,665.3,702.6,663.6,703.9L663.6,703.9z"/>
			<path class="st0" d="M789.8,688.3h-39.4l-4.6,10.9c-0.9,2.1-2.2,3.7-4.1,4.8c-1.9,1.2-3.9,1.7-6,1.7c-1,0-2.2-0.2-3.5-0.6
				c-1.3-0.4-2.5-1-3.6-1.9c-1.1-0.9-2-2-2.8-3.5c-0.8-1.4-1.2-3.2-1.2-5.2c0-1.5,0.3-3,1-4.5l34.2-75.4c2.1-4.6,5.7-6.9,10.7-6.9
				s8.7,2.3,10.7,6.9l33.5,75.4c0.6,1.5,0.9,3,0.9,4.5c0,3.2-1.1,5.8-3.2,8s-4.8,3.2-7.8,3.2c-2.1,0-4.2-0.6-6-1.7
				c-1.9-1.2-3.2-2.8-4.1-4.8L789.8,688.3L789.8,688.3z M758.6,669H782l-11.6-28.1L758.6,669z"/>
			<path class="st0" d="M907.1,609.4c2.9,0,5.4,1,7.5,3c2,2,3.1,4.5,3.1,7.4s-1,5.4-3.1,7.4s-4.5,3-7.5,3h-19v64.2
				c0,3.2-1.1,5.8-3.3,8c-2.2,2.2-4.9,3.3-8,3.3s-5.7-1.1-7.9-3.3c-2.2-2.2-3.3-4.9-3.3-8v-64.2h-19.1c-2.9,0-5.4-1-7.4-3
				c-2-2-3-4.5-3-7.4s1-5.4,3-7.4s4.5-3,7.4-3H907.1L907.1,609.4z"/>
			<path class="st0" d="M969.8,705.7c-3.1,0-5.7-1.1-7.9-3.3c-2.2-2.2-3.3-4.8-3.3-7.9v-74c0-3.1,1.1-5.7,3.3-7.9
				c2.2-2.2,4.8-3.3,7.9-3.3h43.4c2.9,0,5.4,1,7.4,3s3,4.5,3,7.4s-1,5.4-3,7.4s-4.5,3-7.4,3h-32.1v16.4h24.7c2.7,0,5,0.9,6.9,2.8
				c1.8,1.9,2.8,4.2,2.8,6.8s-0.9,4.9-2.8,6.8c-1.8,1.9-4.1,2.8-6.9,2.8h-24.7v19h32.1c2.9,0,5.4,1,7.4,3s3,4.5,3,7.4s-1,5.4-3,7.4
				s-4.5,3-7.4,3L969.8,705.7L969.8,705.7z"/>
			<path class="st0" d="M1216.6,664.3l13.2-47c0.7-2.4,2-4.3,4-5.7c2-1.4,4.2-2.1,6.7-2.1c1.9,0,3.5,0.4,4.9,1.1
				c1.4,0.7,2.6,1.7,3.5,2.8s1.6,2.3,2.1,3.7c0.5,1.3,0.7,2.6,0.7,3.8c0,1.3-0.2,2.4-0.5,3.5l-23.2,73.8c-0.8,2.4-2.1,4.3-3.8,5.7
				c-1.8,1.4-3.9,2-6.4,2s-4.6-0.7-6.4-2s-3.1-3.2-4-5.6l-18.1-51l-18.1,51c-0.9,2.4-2.2,4.3-4,5.6c-1.8,1.3-3.9,2-6.4,2
				s-4.6-0.7-6.4-2s-3.1-3.2-3.8-5.7l-23.2-73.8c-0.3-1-0.5-2.2-0.5-3.5c0-1.2,0.2-2.5,0.7-3.8c0.5-1.3,1.2-2.5,2.1-3.7
				c0.9-1.1,2.1-2,3.5-2.8c1.4-0.7,3.1-1.1,4.9-1.1c2.5,0,4.7,0.7,6.7,2.1c2,1.4,3.3,3.3,4,5.7l13.2,47l16.7-47.1
				c0.9-2.5,2.3-4.4,4.2-5.7c1.8-1.3,4-2,6.6-2s4.8,0.7,6.7,2c1.9,1.3,3.2,3.2,4.1,5.7L1216.6,664.3L1216.6,664.3z"/>
			<path class="st0" d="M1314.9,667.2v27.2c0,3.2-1.1,5.8-3.3,8c-2.2,2.2-4.9,3.3-8,3.3s-5.7-1.1-7.9-3.3c-2.2-2.2-3.3-4.9-3.3-8
				v-73.8c0-3.1,1.1-5.7,3.3-7.9c2.2-2.2,4.8-3.3,7.9-3.3s5.8,1.1,8,3.3c2.2,2.2,3.3,4.8,3.3,7.9v25.7h35.3v-25.7
				c0-3.1,1.1-5.7,3.3-7.9c2.2-2.2,4.8-3.3,7.9-3.3s5.8,1.1,8,3.3c2.2,2.2,3.3,4.8,3.3,7.9v73.8c0,3.2-1.1,5.8-3.3,8
				c-2.2,2.2-4.9,3.3-8,3.3s-5.7-1.1-7.9-3.3c-2.2-2.2-3.3-4.9-3.3-8v-27.2H1314.9z"/>
			<path class="st0" d="M1478.8,688.3h-39.4l-4.6,10.9c-0.9,2.1-2.2,3.7-4.1,4.8c-1.9,1.2-3.9,1.7-6,1.7c-1,0-2.2-0.2-3.5-0.6
				c-1.3-0.4-2.5-1-3.6-1.9c-1.1-0.9-2.1-2-2.8-3.5c-0.8-1.4-1.2-3.2-1.2-5.2c0-1.5,0.3-3,1-4.5l34.2-75.4c2.1-4.6,5.7-6.9,10.7-6.9
				s8.7,2.3,10.7,6.9l33.5,75.4c0.6,1.5,0.9,3,0.9,4.5c0,3.2-1.1,5.8-3.2,8s-4.8,3.2-7.8,3.2c-2.1,0-4.2-0.6-6-1.7
				c-1.9-1.2-3.2-2.8-4.1-4.8L1478.8,688.3L1478.8,688.3z M1447.6,669h23.4l-11.6-28.1L1447.6,669L1447.6,669z"/>
			<path class="st0" d="M1596,609.4c2.9,0,5.4,1,7.4,3c2.1,2,3.1,4.5,3.1,7.4s-1,5.4-3.1,7.4c-2.1,2-4.5,3-7.4,3h-19v64.2
				c0,3.2-1.1,5.8-3.3,8c-2.2,2.2-4.9,3.3-8,3.3s-5.7-1.1-7.9-3.3c-2.2-2.2-3.3-4.9-3.3-8v-64.2h-19.1c-2.9,0-5.4-1-7.4-3
				c-2-2-3-4.5-3-7.4s1-5.4,3-7.4s4.5-3,7.4-3H1596L1596,609.4z"/>
			<path class="st0" d="M1668.2,625.1l-6.2,14.1c-0.5,1.2-1.3,2.2-2.4,2.9c-1.1,0.7-2.4,1.1-3.7,1.1c-1.8,0-3.3-0.6-4.6-1.9
				c-1.3-1.3-1.9-2.8-1.9-4.6c0-0.7,0.2-1.5,0.6-2.6l1.2-2.7c-2-0.9-3.6-2.4-4.9-4.4c-1.3-2-2-4.2-2-6.8c0-1.7,0.3-3.3,1-4.8
				s1.5-2.8,2.6-4s2.4-2,4-2.7c1.5-0.6,3.2-1,4.9-1s3.3,0.3,4.9,1s2.9,1.5,4,2.7s2.1,2.5,2.7,4c0.6,1.5,1,3.1,1,4.8
				C1669.2,622,1668.9,623.6,1668.2,625.1L1668.2,625.1z"/>
			<path class="st0" d="M1777.8,689.6c-2,4.1-4.7,7.4-8,10.1s-7.3,4.6-11.8,5.8c-4.5,1.2-9.3,1.9-14.3,1.9c-4.2,0-8.4-0.7-12.5-2
				s-7.9-3.1-11.2-5.3c-3.3-2.2-6-4.7-8-7.5c-2.1-2.8-3.1-5.7-3.1-8.7s1.1-5.5,3.2-7.6c2.1-2.1,4.6-3.2,7.6-3.2c2.2,0,4.2,0.7,6,2
				c1.8,1.4,3.6,2.9,5.5,4.6c1.9,1.7,4.1,3.2,6.5,4.6c2.4,1.4,5.3,2.1,8.6,2.1c2.2,0,4.1-0.4,5.7-1.2s2.8-1.8,3.7-2.9
				s1.6-2.3,2.1-3.5c0.4-1.2,0.6-2.2,0.6-3.1c0-2.7-1.1-4.8-3.3-6.5c-2.2-1.7-4.8-3-7.6-3.9l-10.9-3.3c-3.2-1-6.4-2.3-9.3-3.7
				c-2.9-1.5-5.5-3.2-7.8-5.3s-4-4.5-5.3-7.2s-2-5.9-2-9.4c0-5,0.9-9.3,2.7-12.9c1.8-3.6,4.2-6.6,7.3-9c3.1-2.3,6.6-4.1,10.7-5.2
				c4-1.1,8.3-1.7,12.7-1.7s8.9,0.5,12.7,1.6c3.8,1.1,7.2,2.5,9.9,4.2c2.8,1.8,4.9,3.8,6.5,6c1.5,2.2,2.3,4.5,2.3,6.8
				c0,3.7-0.9,6.3-2.8,7.8s-3.9,2.2-6.1,2.2c-1.6,0-3.2-0.3-4.7-0.9c-1.5-0.6-2.7-1.4-3.7-2.3c-0.7-0.7-1.5-1.5-2.6-2.3
				c-1-0.8-2.2-1.7-3.5-2.4c-1.3-0.8-2.7-1.4-4.1-1.9c-1.5-0.5-2.9-0.8-4.5-0.8c-2.7,0-5.2,0.9-7.3,2.6c-2.1,1.8-3.2,4-3.2,6.6
				c0,0.9,0.1,1.7,0.4,2.5c0.3,0.8,0.7,1.6,1.4,2.2s1.7,1.4,2.9,2c1.2,0.7,2.8,1.3,4.8,1.9l11.4,3.5c3.5,1,6.8,2.3,9.9,3.8
				s5.8,3.4,8,5.7c2.3,2.2,4.1,4.8,5.4,7.8c1.3,3,2,6.5,2,10.5C1780.7,680.7,1779.8,685.6,1777.8,689.6L1777.8,689.6z"/>
			<path class="st0" d="M1911.5,649.5v44.9c0,3.2-1.1,5.8-3.3,8c-2.2,2.2-4.9,3.3-8,3.3s-5.7-1.1-7.9-3.3c-2.2-2.2-3.3-4.9-3.3-8
				v-73.8c0-3.1,1.1-5.7,3.3-7.9c2.2-2.2,4.8-3.3,7.9-3.3c1.9,0,3.6,0.4,5.1,1.2s2.7,1.8,3.7,2.9l40.4,51.9v-44.8
				c0-3.1,1.1-5.7,3.3-7.9c2.2-2.2,4.8-3.3,7.9-3.3s5.8,1.1,8,3.3c2.2,2.2,3.3,4.8,3.3,7.9v73.8c0,3.2-1.1,5.8-3.3,8
				c-2.2,2.2-4.9,3.3-8,3.3c-2,0-3.7-0.5-5.2-1.3c-1.5-0.9-2.7-2-3.7-3.2L1911.5,649.5L1911.5,649.5z"/>
			<path class="st0" d="M2028.2,705.7c-3.1,0-5.7-1.1-7.9-3.3c-2.2-2.2-3.3-4.8-3.3-7.9v-74c0-3.1,1.1-5.7,3.3-7.9
				c2.2-2.2,4.8-3.3,7.9-3.3h43.4c2.9,0,5.4,1,7.4,3c2,2,3,4.5,3,7.4s-1,5.4-3,7.4s-4.5,3-7.4,3h-32.1v16.4h24.7
				c2.7,0,5,0.9,6.9,2.8s2.8,4.2,2.8,6.8s-0.9,4.9-2.8,6.8c-1.8,1.9-4.1,2.8-6.9,2.8h-24.7v19h32.1c2.9,0,5.4,1,7.4,3
				c2,2,3,4.5,3,7.4s-1,5.4-3,7.4s-4.5,3-7.4,3L2028.2,705.7L2028.2,705.7z"/>
			<path class="st0" d="M2124.9,627.4c-1.5-2-2.2-4.2-2.2-6.7c0-2,0.4-3.7,1.1-5.1c0.7-1.4,1.7-2.6,2.8-3.5c1.2-0.9,2.4-1.6,3.7-2
				c1.3-0.4,2.5-0.6,3.7-0.6c1.7,0,3.3,0.4,4.9,1.2c1.5,0.8,2.9,1.9,4,3.3l18,23.6l17.9-23.6c1.1-1.5,2.5-2.6,4-3.3s3.2-1.2,4.9-1.2
				c1,0,2.2,0.2,3.5,0.6c1.3,0.4,2.5,1,3.7,1.9c1.2,0.9,2.1,2,2.9,3.5c0.8,1.5,1.2,3.2,1.2,5.4c0,1.2-0.2,2.4-0.5,3.5
				c-0.3,1.2-0.9,2.2-1.7,3.2l-21.8,28.8l24,31.6c0.8,0.9,1.3,2,1.7,3.2c0.3,1.2,0.5,2.3,0.5,3.5c0,1.9-0.3,3.5-1,4.9
				s-1.6,2.6-2.6,3.5c-1.1,0.9-2.3,1.7-3.6,2.1s-2.6,0.7-3.9,0.7c-1.7,0-3.4-0.4-4.9-1.1c-1.6-0.7-2.9-1.8-4-3.3l-20-26.6
				l-20.2,26.6c-1.1,1.5-2.5,2.5-4,3.3c-1.6,0.7-3.2,1.1-4.9,1.1c-1.9,0-3.5-0.4-4.9-1.1c-1.4-0.7-2.6-1.6-3.5-2.7s-1.6-2.3-2.1-3.6
				c-0.5-1.3-0.7-2.6-0.7-3.9c0-2.5,0.7-4.7,2.2-6.7l24-31.6L2124.9,627.4L2124.9,627.4z"/>
			<path class="st0" d="M2309.7,609.4c2.9,0,5.4,1,7.4,3c2.1,2,3.1,4.5,3.1,7.4s-1,5.4-3.1,7.4s-4.5,3-7.4,3h-19v64.2
				c0,3.2-1.1,5.8-3.3,8c-2.2,2.2-4.9,3.3-8,3.3s-5.7-1.1-7.9-3.3c-2.2-2.2-3.3-4.9-3.3-8v-64.2h-19.1c-2.9,0-5.4-1-7.4-3
				c-2-2-3-4.5-3-7.4s1-5.4,3-7.4s4.5-3,7.4-3H2309.7L2309.7,609.4z"/>
		</g>
	</g>
	<path class="st4" d="M2095.5,73.6c-1.7,1.7-3.8,2.5-6.2,2.5c-2.4,0-4.4-0.8-6.1-2.5c-1.7-1.7-2.5-3.8-2.5-6.2V10
		c0-2.4,0.8-4.4,2.5-6.1c1.7-1.7,3.7-2.5,6.1-2.5h33.7c2.3,0,4.2,0.8,5.7,2.3c1.6,1.6,2.3,3.5,2.3,5.7c0,2.3-0.8,4.2-2.3,5.7
		c-1.6,1.6-3.5,2.3-5.7,2.3h-24.9v12.8h19.2c2.1,0,3.9,0.7,5.3,2.2c1.4,1.5,2.1,3.2,2.1,5.3c0,2.1-0.7,3.8-2.1,5.3
		c-1.4,1.5-3.2,2.2-5.3,2.2h-19.2v22.1C2098.1,69.8,2097.2,71.9,2095.5,73.6z M2167.4,59.9h28.5c2.3,0,4.2,0.8,5.7,2.3
		c1.6,1.6,2.3,3.5,2.3,5.7c0,2.3-0.8,4.2-2.3,5.7c-1.6,1.6-3.5,2.3-5.7,2.3h-45.2c-2.2,0-4.1-0.8-5.7-2.3c-1.6-1.6-2.4-3.5-2.4-5.7
		c0-1.1,0.1-2,0.4-2.7c0.3-0.8,0.7-1.5,1.2-2.2l33.3-45.6h-26.2c-2.3,0-4.2-0.8-5.8-2.3c-1.6-1.6-2.4-3.5-2.4-5.7
		c0-2.3,0.8-4.2,2.4-5.7c1.6-1.6,3.5-2.3,5.8-2.3h43.2c2.3,0,4.2,0.8,5.8,2.3c1.6,1.6,2.4,3.5,2.4,5.7c0,1-0.1,1.9-0.4,2.6
		c-0.3,0.7-0.7,1.5-1.2,2.2L2167.4,59.9z M2237.3,74.4c-4.7-2-8.7-4.8-12.3-8.3c-3.5-3.5-6.3-7.6-8.3-12.3c-2-4.7-3-9.7-3-15.1
		c0-5.3,1-10.3,3-15.1c2-4.7,4.8-8.8,8.3-12.3c3.5-3.5,7.6-6.2,12.3-8.3c4.7-2,9.6-3,15-3c6.4,0,12.2,1.1,17.3,3.4
		c5.1,2.3,9.3,5.5,12.7,9.6c1.3,1.7,2,3.4,2,5.3c0,1.6-0.4,3-1.1,4.2c-0.8,1.2-1.7,2.2-2.8,2.9c-1.1,0.8-2.2,1.3-3.3,1.7
		c-1.1,0.4-2.1,0.6-2.8,0.6c-2.1,0-4.2-1.1-6.2-3.4c-0.8-0.9-1.7-1.7-2.8-2.5c-1.1-0.8-2.3-1.6-3.6-2.2c-1.3-0.7-2.8-1.2-4.3-1.6
		c-1.6-0.4-3.2-0.6-4.8-0.6c-2.9,0-5.7,0.6-8.2,1.7c-2.6,1.1-4.8,2.7-6.7,4.6c-1.9,1.9-3.4,4.2-4.5,6.7c-1.1,2.6-1.6,5.3-1.6,8.2
		c0,2.9,0.5,5.7,1.6,8.2c1.1,2.6,2.6,4.8,4.5,6.7c1.9,1.9,4.2,3.4,6.7,4.5c2.6,1.1,5.3,1.6,8.2,1.6c3.4,0,6.5-0.7,9.2-2.1
		c2.8-1.4,4.9-3,6.4-4.7c1.1-1.3,2.1-2.2,3.1-2.7c1-0.5,2.1-0.8,3.1-0.8c1.1,0,2.2,0.3,3.4,0.8c1.2,0.5,2.3,1.2,3.2,2.1
		c1,0.9,1.8,1.9,2.4,3c0.6,1.1,0.9,2.3,0.9,3.5c0,1.9-0.7,3.7-2,5.4c-3.4,4.1-7.6,7.3-12.7,9.6c-5.1,2.3-10.8,3.4-17.3,3.4
		C2247,77.4,2242,76.4,2237.3,74.4z M2317.5,74.4c-4.7-2-8.8-4.8-12.3-8.3c-3.5-3.5-6.3-7.6-8.3-12.3c-2-4.7-3-9.7-3-15.1
		c0-5.3,1-10.3,3-15.1c2-4.7,4.8-8.8,8.3-12.3c3.5-3.5,7.6-6.2,12.3-8.3c4.7-2,9.7-3,15-3c5.3,0,10.3,1,15.1,3
		c4.7,2,8.8,4.8,12.3,8.3c3.5,3.5,6.2,7.6,8.3,12.3c2,4.7,3,9.7,3,15.1c0,5.3-1,10.3-3,15.1c-2,4.7-4.8,8.8-8.3,12.3
		c-3.5,3.5-7.6,6.3-12.3,8.3c-4.7,2-9.7,3-15.1,3C2327.2,77.4,2322.2,76.4,2317.5,74.4z M2313,46.9c1.1,2.6,2.6,4.8,4.5,6.7
		c1.9,1.9,4.2,3.4,6.7,4.5c2.6,1.1,5.3,1.6,8.2,1.6c2.9,0,5.7-0.5,8.3-1.6c2.6-1.1,4.9-2.6,6.8-4.5c1.9-1.9,3.4-4.2,4.5-6.7
		c1.1-2.6,1.6-5.3,1.6-8.2c0-2.9-0.5-5.7-1.6-8.2c-1.1-2.6-2.6-4.8-4.5-6.7c-1.9-1.9-4.2-3.5-6.8-4.6c-2.6-1.1-5.4-1.7-8.3-1.7
		c-2.9,0-5.7,0.6-8.2,1.7c-2.6,1.1-4.8,2.7-6.7,4.6c-1.9,1.9-3.4,4.2-4.5,6.7c-1.1,2.6-1.6,5.3-1.6,8.2
		C2311.3,41.6,2311.9,44.4,2313,46.9z"/>
</g>
</svg>
