<svg xmlns="http://www.w3.org/2000/svg" viewBox="0 0 357.44 65.39"><defs><style>.cls-1{fill:#353c47;}.cls-2{fill:#fff;}.cls-3{fill:#f6903b;}</style></defs><g id="Layer_2" data-name="Layer 2"><g id="Layer_1-2" data-name="Layer 1"><path class="cls-1" d="M20.66,1.92H45.18a10.56,10.56,0,0,1,8.49,3.86,10,10,0,0,1,2.18,8.92Q54.58,20.27,53,27.4a10.9,10.9,0,0,1-10.67,8.25h-26v-.11a.09.09,0,0,1,0-.07.2.2,0,0,0-.06.13c0,.06,0,.14-.05.24a3.91,3.91,0,0,0-.09.39c0,.16-.09.35-.13.58s-.12.48-.19.79-.16.66-.26,1-.21.82-.32,1.3-.23,1-.37,1.62-.28,1.25-.45,1.95l-.53,2.32c-.2.85-.41,1.76-.64,2.73s-.47,2-.74,3.14H0s0-.06,0-.13,0-.15.07-.27.09-.31.15-.56.14-.56.22-.93.2-.83.32-1.38.28-1.18.46-1.93.4-1.6.64-2.56l.78-3.29c.28-1.23.61-2.59,1-4.1l1.21-5q.65-2.73,1.43-6C6.8,23.37,7.37,21,8,18.43s1.29-5.32,2-8.27Q12.93,1.93,20.66,1.92Zm-1.6,22.14h21a1.45,1.45,0,0,0,1.49-1l2-7.95A1.48,1.48,0,0,0,42,13.32H22.7a1.46,1.46,0,0,0-.89.34,1.57,1.57,0,0,0-.59.89Z"/><path class="cls-1" d="M60.42,13.43H72.79L63.87,50.92a5.13,5.13,0,0,1-.22.78H51.09a3.23,3.23,0,0,0,.41-.78Z"/><polygon class="cls-1" points="66.94 0 72.02 0 68.87 13.85 63.79 13.85 66.94 0"/><path class="cls-1" d="M113.7,13.62,97.87,32.53l9.4,19.17H94.9l-4.83-9.8-8.18,9.8H68.63L85.2,32l-9-18.35H88.62l4.42,9,7.58-9Z"/><path class="cls-1" d="M153.16,13.7H135.8q-16.41-.88-24.22,12.11Q107,36.34,110,43.44c2,4.74,6.12,7.46,12.38,8.12l8.95.15H143.5l6.08-24,3.06-12h0Zm-24.87,7.22a3.07,3.07,0,0,1,1.42,3.73L126,35.29l0,0h0s0,0,0,0a0,0,0,0,0,0,0h0a0,0,0,0,0,0,0c-.07.17-.21.6-.57,1.59l-1.92-1,.41-12.62a3,3,0,0,1,4.45-2.42h0Zm1.63,4.66c1.2-2.92,5.37-2.15,6,.62a3,3,0,0,1-.44,2.36l-7.39,9.89-2.29-1.22Zm.34,14.62-.73,1.34-7.11-3.79.73-1.35Zm-1,1.79-.32.61a4,4,0,0,1-5.45,1.67h0a4,4,0,0,1-1.66-5.46l.32-.6Zm11.45-9.62-10.27,7.35-1.93-1,7.84-10.5a3,3,0,1,1,4.36,4.17Z"/><path class="cls-2" d="M129.29,42l-.32.61a4,4,0,0,1-5.45,1.67h0a4,4,0,0,1-1.66-5.46l.32-.6Z"/><polygon class="cls-2" points="130.26 40.2 129.53 41.54 122.42 37.75 123.15 36.4 130.26 40.2"/><path class="cls-2" d="M129.71,24.65,126,35.29l0,0h0s0,0,0,0a0,0,0,0,0,0,0h0a0,0,0,0,0,0,0c-.07.17-.21.6-.57,1.59l-1.92-1,.41-12.62a3,3,0,0,1,4.45-2.42h0A3.07,3.07,0,0,1,129.71,24.65Z"/><path class="cls-2" d="M135.48,28.56l-7.39,9.89-2.29-1.22,4.12-11.65c1.2-2.92,5.37-2.15,6,.62A3,3,0,0,1,135.48,28.56Z"/><path class="cls-2" d="M140.74,32.37l-10.27,7.35-1.93-1,7.84-10.5a3,3,0,1,1,4.36,4.17Z"/><path class="cls-3" d="M170.55,13.32a1.36,1.36,0,0,0-.9.32,1.8,1.8,0,0,0-.52.72.3.3,0,0,1,0,.11,1.16,1.16,0,0,0-.08.26c0,.13-.06.31-.11.54s-.12.53-.2.88-.2.78-.32,1.3-.27,1.12-.45,1.82a1.52,1.52,0,0,0,.3,1.22,1.29,1.29,0,0,0,1.08.52h18.09a9.59,9.59,0,0,1,8,3.89,10.22,10.22,0,0,1,1.84,8.93.65.65,0,0,1,0,.11c0,.05,0,.13-.05.24l-.12.49c0,.21-.11.48-.2.8s-.19.72-.3,1.21-.24,1-.41,1.69l-.55,2.22c-.21.85-.44,1.8-.69,2.87a11,11,0,0,1-3.86,5.94,10.5,10.5,0,0,1-6.73,2.3H148s0-.06,0-.13,0-.16.08-.29.08-.33.15-.58l.24-1c.1-.4.21-.88.33-1.45s.28-1.25.47-2,.4-1.68.65-2.69.52-2.16.81-3.42h32a1.46,1.46,0,0,0,1.44-1.08.89.89,0,0,1,0-.11c0-.05,0-.14.06-.26s.07-.3.13-.54l.22-.87c.09-.35.19-.78.32-1.3s.26-1.13.41-1.82a1.21,1.21,0,0,0-.13-1.21,1.25,1.25,0,0,0-1.06-.54H165.86a9.7,9.7,0,0,1-8-3.81,10.17,10.17,0,0,1-1.86-9,.65.65,0,0,1,0-.11c0-.05,0-.14.07-.26s.08-.29.13-.5.11-.48.19-.8.17-.72.3-1.19.26-1,.4-1.69.33-1.41.54-2.25.46-1.8.73-2.86q3.15-8.07,10.55-8.06h36.56a.43.43,0,0,1,0,.13,2.25,2.25,0,0,1-.07.29c0,.14-.09.33-.15.58s-.15.56-.26,1-.24.85-.37,1.41-.31,1.22-.5,2l-.69,2.65-.87,3.4h-32Z"/><path class="cls-3" d="M206.79,21.68a24.58,24.58,0,0,1,15.81-8.06h20.88l-3,10.44H224.64v0H223q-8-.12-10.48,8.77a8.31,8.31,0,0,0,1,6.09q1.64,2.72,6.17,2.82H236.5l-2.6,9.92H214.46q-8,0-11.31-3.69a11.41,11.41,0,0,1-3-8.9Q200.46,28.62,206.79,21.68Z"/><path class="cls-3" d="M303.08,13.62c-6.29.86-10.31,4.38-12.07,10.51l-5.17,21.06a8.69,8.69,0,0,1,2.05,6.51h8.54l6.05-24.45a3.86,3.86,0,0,1,1.23-2,3.14,3.14,0,0,1,2.08-.8h6.62l2.45-10.84Z"/><path class="cls-3" d="M321.17,21.14a25.74,25.74,0,0,1,17.5-7.52h9.07a9.34,9.34,0,0,1,7.64,3.49,8.79,8.79,0,0,1,1.76,8c-.2.74-.37,1.39-.52,1.93l-.37,1.38c-.1.37-.19.68-.26.93a5.56,5.56,0,0,0-.15.57,1.21,1.21,0,0,1-.07.28.24.24,0,0,0,0,.11A9.91,9.91,0,0,1,352,36a10.62,10.62,0,0,1-6.55,2.13H334.22a3.5,3.5,0,0,1-3.05-2.58,5.4,5.4,0,0,1,.72-4.42c.91-1.5,2.57-2.47,5-2.92H344l.39-1.54c.11-.43.21-.8.3-1.1s.15-.54.2-.74.09-.35.11-.46a2.24,2.24,0,0,1,.06-.23.29.29,0,0,0,0-.09h-7.66a11.38,11.38,0,0,0-6.87,2.1,11.61,11.61,0,0,0-4.13,6.74,8.69,8.69,0,0,0,1,6.1c1.09,1.85,3.24,2.78,6.43,2.78h19c-.27,1.12-.53,2.11-.76,3s-.45,1.63-.64,2.28-.34,1.23-.46,1.73-.24.91-.33,1.24-.18.61-.23.82-.09.38-.13.5-.06.21-.07.26a.89.89,0,0,0,0,.11h-21.7q-7.72,0-11.11-3.69A13,13,0,0,1,314,39.18Q314,28.23,321.17,21.14Z"/><circle class="cls-1" cx="279.01" cy="50.47" r="6.53"/><path class="cls-3" d="M250.65,56.39a16.43,16.43,0,0,1,9.47-.37,21.14,21.14,0,0,0,2.6.46L242.21,36a19.32,19.32,0,0,0,.48,2.61,16.43,16.43,0,0,1-.37,9.47l1.52-1.4a4.69,4.69,0,0,1,6.51.15l1.55,1.56a4.67,4.67,0,0,1,.15,6.5Z"/><path class="cls-3" d="M237.7,64.83a2,2,0,0,0,1.38.56,1.91,1.91,0,0,0,1.36-.62l3.88-4.23h0l6.35-6.93a2.82,2.82,0,0,0-.09-3.92L249,48.13A2.82,2.82,0,0,0,245.1,48l-6.93,6.35-4.24,3.88a1.9,1.9,0,0,0-.11,2.68l.06,0Z"/><path class="cls-3" d="M279,42.07a8.33,8.33,0,0,1,4.47,1.31c3.69-8.64,2.25-18.57-3.67-24.49a20.63,20.63,0,0,0-16-5.69,24.9,24.9,0,0,0-16,7,18.9,18.9,0,0,0-5.71,13L265.5,56.62a18.23,18.23,0,0,0,6.6-1.4A8.39,8.39,0,0,1,279,42.07Z"/></g></g></svg>