<svg width="44" height="48" viewBox="0 0 44 48" fill="none" xmlns="http://www.w3.org/2000/svg">
<g clip-path="url(#clip0_1921_48)">
<path fill-rule="evenodd" clip-rule="evenodd" d="M8.09908 40.954C8.13503 40.9408 8.16927 40.9275 8.20522 40.9141C8.1275 40.8733 8.20523 40.8059 8.21379 40.7394C7.74365 40.5078 10.2061 39.9262 10.4318 39.8207C12.9322 39.4676 15.4856 39.6328 18.0001 39.4259C20.7365 39.5161 28.3267 38.2832 29.8072 40.7955C29.7531 40.8315 29.7002 40.8496 29.6659 40.9331C29.6166 40.9815 29.5427 40.9342 29.5029 41.0281C29.375 41.1752 29.1665 41.0974 29.0224 41.2786C23.0735 42.2463 16.8075 41.8846 10.8041 41.5189C10.1883 41.4575 9.51033 41.3773 8.93884 41.3451C8.64591 41.176 8.21002 41.4047 7.99105 41.026C8.02409 40.9712 8.06295 40.9683 8.09908 40.954ZM10.4316 34.6799C13.1765 34.3249 15.9727 34.4588 18.7317 34.2623C21.3467 34.3088 28.3778 33.2307 29.807 35.6547C29.7529 35.6907 29.7 35.7088 29.6658 35.7923C29.6164 35.8407 29.5425 35.7942 29.5028 35.8873C29.3749 36.0344 29.1663 35.9566 29.0222 36.1379C23.0733 37.1053 16.8073 36.7443 10.804 36.3783C10.1881 36.3169 9.51016 36.2367 8.93867 36.2044C8.64574 36.0354 8.20985 36.2641 7.99087 35.8854C8.05063 35.8 8.12733 35.8132 8.20505 35.7735C8.12733 35.7327 8.20506 35.6653 8.21362 35.6008C7.76437 35.3641 10.1804 34.791 10.4316 34.6799ZM4.08018 12.7168C5.49709 11.3207 6.78045 9.7729 8.03453 8.21736C7.64915 9.77804 8.28278 12.2672 6.27248 12.9256C5.45171 13.2205 4.50922 12.897 3.6698 13.1317C3.80625 12.992 3.94185 12.8524 4.08018 12.7168ZM33.8685 5.93393C37.2305 6.54799 37.4769 9.73501 37.3072 12.5518C37.4178 22.0568 37.3925 32.246 37.457 41.7695C39.3603 41.521 41.692 41.4952 41.618 38.9518C40.9469 27.7263 41.4139 16.2875 41.197 5.05227C41.4295 3.19399 40.1098 2.31387 38.3791 2.50999C31.8336 2.32964 25.1581 2.48976 18.6245 2.22524C14.1149 2.03839 13.5534 1.82907 13.167 6.59736C20.0416 6.25364 26.9788 5.72033 33.8685 5.93393ZM0.0842285 43.5622C0.252011 47.038 3.50014 48.3044 6.55702 47.9133C11.7841 47.906 17.1338 47.8595 22.3496 47.7921C25.2423 47.7855 28.5142 47.7524 31.4259 47.7484C34.7982 48.2579 37.9879 46.1214 37.4616 42.465C44.8711 44.6302 43.6718 36.7393 43.7721 31.9664C44.0036 23.296 43.7178 14.4426 43.6634 5.77347C44.0652 2.00427 41.5781 -0.2387 37.8843 0.222614C32.7339 0.213014 27.4243 0.317414 22.2851 0.383757C17.8854 0.523986 10.8971 -0.462928 12.7537 6.27456C12.7963 6.17684 12.7679 6.0145 12.8295 5.9377C12.9357 6.02684 12.9528 6.23564 13.0021 5.96804C13.0278 6.18164 13.0409 6.3913 13.0742 6.60199C12.6078 6.64844 8.47813 6.74153 10.4686 6.91227C10.2268 7.04804 10.0676 7.02336 10.4752 7.07461C10.044 7.11061 9.5444 7.09073 9.1407 7.17524C16.915 7.75639 24.7619 7.5853 32.5643 7.80576C33.2705 7.77593 34.0505 7.83576 34.5794 8.36633C35.149 8.91576 35.3291 9.47856 35.2875 10.3175C35.2546 18.3601 35.207 26.3994 35.1301 34.4427C34.5511 46.7728 37.9006 45.2487 24.8501 45.3104C18.6493 45.2715 11.6288 45.3418 5.41679 45.3399C1.88515 45.5895 2.77422 42.6958 2.66054 40.306C2.76566 31.8946 2.45492 23.5078 2.2957 15.1028C4.37534 16.0348 7.36563 15.9214 8.92104 14.056C10.4489 12.1114 10.2534 9.0541 9.02719 6.99216C9.0366 6.98359 9.04517 6.97227 9.0527 6.96181C9.04369 6.96998 9.0342 6.9776 9.02428 6.98461C8.95511 6.88399 8.9058 6.75216 8.775 6.87936C8.71525 6.87644 8.64523 6.82433 8.60157 6.87559C8.55791 6.82159 8.57126 6.77599 8.48874 6.73981C8.14445 6.83839 8.32319 7.14713 8.17133 7.33673C8.0633 7.37084 8.159 7.46393 8.15609 7.53593C5.45103 9.22913 3.20463 11.5657 0.793366 13.6753C0.62079 13.8224 0.532618 14.0596 0.535528 14.2969C-0.0239735 23.9919 0.20082 33.8413 0.0842285 43.5622Z" fill="#2B3133"/>
<path d="M16.7642 28.225C19.1969 28.4079 22.8231 28.31 22.9382 24.9722C22.8723 22.6848 23.6088 19.1795 20.7138 18.5381C19.3823 18.5207 17.5886 18.0733 16.4408 18.8053C16.6403 21.692 15.7685 25.9247 16.7642 28.225ZM19.3419 19.0752C22.5568 19.4055 21.6489 23.7773 21.5391 26.1205C21.0829 28.0072 19.0985 27.6275 17.6607 27.6128V19.0679C18.224 19.0624 18.7865 19.0569 19.3419 19.0752ZM27.336 27.8462V23.6565C31.8296 23.8816 31.8691 22.7031 27.336 23.0215V19.1905C35.1042 19.4805 33.3737 17.8738 26.93 18.3387C24.9323 18.9709 26.5485 24.7581 26.0511 26.8479C25.7962 27.9742 26.5195 29.0942 27.336 27.8462ZM8.87563 27.7364V23.6135C15.9654 24.5285 15.8036 17.1281 8.64976 18.4841C6.37968 18.7028 8.1163 24.9365 7.60217 26.955C7.40531 28.1499 7.91768 28.7026 8.87563 27.7364ZM11.7759 19.2765C14.6286 22.0315 11.7477 23.608 8.87563 23.0618V19.0386C9.82128 19.1063 10.8952 18.8309 11.7759 19.2765Z" fill="#2B3133"/>
</g>
<defs>
<clipPath id="clip0_1921_48">
<rect width="44" height="48" fill="white"/>
</clipPath>
</defs>
</svg>
